HIERARCHY
ROOT Hips
{
	OFFSET 0.00000 0.00000 0.00000
	CHANNELS 6 Xposition Yposition Zposition Zrotation Yrotation Xrotation 
	JOINT LHipJoint
	{
		OFFSET 0 0 0
		CHANNELS 3 Zrotation Yrotation Xrotation
		JOINT LeftHip
		{
			OFFSET 1.58895 -1.83665 0.71753
			CHANNELS 3 Zrotation Yrotation Xrotation
			JOINT LeftKnee
			{
				OFFSET 2.50528 -6.88321 0.00000
				CHANNELS 3 Zrotation Yrotation Xrotation
				JOINT LeftAnkle
				{
					OFFSET 2.63244 -7.23257 0.00000
					CHANNELS 3 Zrotation Yrotation Xrotation
					JOINT LeftToe
					{
						OFFSET 0.23691 -0.65090 1.72750
						CHANNELS 3 Zrotation Yrotation Xrotation
						End Site
						{
							OFFSET 0.00000 -0.00000 0.92561
						}
					}
				}
			}
		}
	}
	JOINT RHipJoint
	{
		OFFSET 0 0 0
		CHANNELS 3 Zrotation Yrotation Xrotation
		JOINT RightHip
		{
			OFFSET -1.51435 -1.83665 0.71753
			CHANNELS 3 Zrotation Yrotation Xrotation
			JOINT RightKnee
			{
				OFFSET -2.54551 -6.99375 0.00000
				CHANNELS 3 Zrotation Yrotation Xrotation
				JOINT RightAnkle
				{
					OFFSET -2.66027 -7.30903 0.00000
					CHANNELS 3 Zrotation Yrotation Xrotation
					JOINT RightToe
					{
						OFFSET -0.22981 -0.63138 2.03959
						CHANNELS 3 Zrotation Yrotation Xrotation
						End Site
						{
							OFFSET -0.00000 -0.00000 1.07060
						}
					}
				}
			}
		}
	}
	JOINT lowerback
	{
		OFFSET 0 0 0
		CHANNELS 3 Zrotation Yrotation Xrotation
		JOINT Chest
		{
			OFFSET -0.02651 1.86275 -0.11152
			CHANNELS 3 Zrotation Yrotation Xrotation
			JOINT Chest2
			{
				OFFSET 0.01019 1.86224 0.04087
				CHANNELS 3 Zrotation Yrotation Xrotation
				JOINT lowerneck
				{
					OFFSET 0 0 0
					CHANNELS 3 Zrotation Yrotation Xrotation
					JOINT Neck
					{
						OFFSET -0.01926 1.80512 0.08867
						CHANNELS 3 Zrotation Yrotation Xrotation
						JOINT Head
						{
							OFFSET 0.05516 1.76451 -0.38475
							CHANNELS 3 Zrotation Yrotation Xrotation
							End Site
							{
								OFFSET 0.01592 1.82587 -0.14001
							}
						}
					}
				}
				JOINT LeftCollar
				{
					OFFSET 0 0 0
					CHANNELS 3 Zrotation Yrotation Xrotation
					JOINT LeftShoulder
					{
						OFFSET 3.47116 1.51376 0.14491
CHANNELS 3 Zrotation Xrotation Yrotation
						JOINT LeftElbow
						{
OFFSET 0 -4.780950 0.000000
CHANNELS 3 Zrotation Xrotation Yrotation
							JOINT LeftWrist
							{
OFFSET 0 -3.586150 -0.000000
CHANNELS 3 Zrotation Xrotation Yrotation
								JOINT lhand
								{
									OFFSET 0 0 0
CHANNELS 3 Zrotation Xrotation Yrotation
									JOINT LFingers
									{
OFFSET 0 -0.659810 0.000000
CHANNELS 3 Zrotation Xrotation Yrotation
										End Site
										{
OFFSET 0 -0.531960 0.000000
										}
									}
								}
								JOINT LThumb
								{
OFFSET 0 0.000000 0.000000
CHANNELS 3 Zrotation Xrotation Yrotation
									End Site
									{
OFFSET 0 -0.540080 0.540080
									}
								}
							}
						}
					}
				}
				JOINT RightCollar
				{
					OFFSET 0 0 0
					CHANNELS 3 Zrotation Yrotation Xrotation
					JOINT RightShoulder
					{
						OFFSET -3.31725 1.61216 0.35156
CHANNELS 3 Zrotation Xrotation Yrotation
						JOINT RightElbow
						{
OFFSET 0 -4.489130 0.000000
CHANNELS 3 Zrotation Xrotation Yrotation
							JOINT RightWrist
							{
OFFSET 0 -3.705100 0.000000
CHANNELS 3 Zrotation Xrotation Yrotation
								JOINT rhand
								{
									OFFSET 0 0 0
CHANNELS 3 Zrotation Xrotation Yrotation
									JOINT RFingers
									{
OFFSET 0 -0.449140 0.000000
CHANNELS 3 Zrotation Xrotation Yrotation
										End Site
										{
OFFSET 0 -0.362110 0.000000
										}
									}
								}
								JOINT RThumb
								{
OFFSET 0 0.000000 0.000000
CHANNELS 3 Zrotation Xrotation Yrotation
									End Site
									{
OFFSET 0 -0.367630 0.367630
									}
								}
							}
						}
					}
				}
			}
		}
	}
}
MOTION
Frames: 6
Frame Time: 0.008333333333333333
-0.936839 18.602154 5.476506 -4.707777 -11.519496 -2.844828 0.000000 0.000000 0.000000 -8.593841 0.770557 -1.981721 1.912552 8.681519 24.804007 1.509266 3.661383 -24.773028 8.916901 -16.753939 -55.802368 0.000000 0.000000 0.000000 20.113338 4.720038 12.009012 0.000000 0.000000 0.000000 -0.781162 -5.344679 -19.472945 -0.907912 6.071780 -16.992927 2.265507 -1.424397 16.160773 2.911671 -1.444921 5.729502 2.046888 -0.743025 -2.936701 -15.362489 -8.350978 2.064493 -2.526615 -10.258947 41.360098 0.346099 -7.125722 15.061574 0.000000 0.000000 0.000000 64.476825 4.706811 11.236824 120.188624 -56.256430 85.815145 21.106140 -35.193760 34.601316 0.000000 0.000000 0.000000 -7.125000 0.000000 0.000000 -6.391180 -6.300672 -7.096115 0.000000 0.000000 0.000000 -69.398287 11.363275 -24.763545 -127.024725 -54.126512 -91.431814 -39.275725 21.073658 17.236645 0.000000 0.000000 0.000000 7.125000 0.000000 0.000000 -11.669930 51.450129 1.875183
-0.942253 18.601449 5.470521 -4.806885 -11.598105 -2.807780 0.000000 0.000000 0.000000 -8.463636 0.741897 -1.964888 1.908372 8.672650 24.776457 1.513142 3.658287 -24.800855 8.897216 -16.741073 -55.733861 0.000000 0.000000 0.000000 20.259452 4.859977 12.015161 0.000000 0.000000 0.000000 -0.786696 -5.342224 -19.526780 -0.882578 5.988901 -16.752273 2.160108 -1.438603 16.119437 2.985491 -1.483296 5.821123 2.188314 -0.764031 -2.812444 -15.615288 -8.590562 2.486799 -2.321774 -10.740521 41.033052 0.440249 -7.338520 14.884471 0.000000 0.000000 0.000000 66.313508 4.512273 12.388300 122.479304 -55.609585 87.712954 21.803936 -35.559556 35.328987 0.000000 0.000000 0.000000 -7.125000 0.000000 0.000000 -6.130849 -7.188500 -6.886926 0.000000 0.000000 0.000000 -71.102318 10.392945 -24.848144 -128.128587 -53.722072 -92.323908 -40.283137 22.162589 17.046808 0.000000 0.000000 0.000000 7.125000 0.000000 0.000000 -12.743910 51.435074 2.047625
-0.946469 18.600557 5.466545 -4.868359 -11.650508 -2.773161 0.000000 0.000000 0.000000 -8.372856 0.749910 -1.966006 1.903917 8.663106 24.746931 1.516656 3.629861 -24.813000 8.877193 -16.728062 -55.664554 0.000000 0.000000 0.000000 20.369379 4.977234 12.011534 0.000000 0.000000 0.000000 -0.778162 -5.448979 -19.514053 -0.917634 6.103426 -17.084728 2.102987 -1.439946 16.116420 3.024362 -1.494856 5.868006 2.262730 -0.771028 -2.758506 -15.629524 -8.781454 2.693527 -2.206649 -11.108383 40.991009 0.452322 -7.486460 14.859538 0.000000 0.000000 0.000000 67.984015 4.156545 13.512977 124.544343 -54.970752 89.410924 22.200011 -35.255186 35.682792 0.000000 0.000000 0.000000 -7.125000 0.000000 0.000000 -5.977388 -7.634742 -6.753130 0.000000 0.000000 0.000000 -72.593783 9.549991 -24.944802 -129.243529 -53.295571 -93.220387 -40.717263 22.701716 16.859418 0.000000 0.000000 0.000000 7.125000 0.000000 0.000000 -13.197623 51.299415 2.078486
-0.951857 18.598822 5.465360 -4.810925 -11.708909 -2.783268 0.000000 0.000000 0.000000 -8.394120 0.870796 -1.936604 1.895566 8.645033 24.691141 1.526336 3.530479 -24.837259 8.863154 -16.718856 -55.615579 0.000000 0.000000 0.000000 20.351684 5.095231 12.044549 0.000000 0.000000 0.000000 -0.780732 -5.514907 -19.585475 -0.895934 6.032530 -16.878879 1.942902 -1.422855 16.157893 3.037793 -1.495683 5.886474 2.368503 -0.773120 -2.756755 -15.558717 -8.872244 2.830993 -2.000912 -11.358316 40.993640 0.500250 -7.564003 14.858174 0.000000 0.000000 0.000000 69.399689 3.829519 14.522606 126.490384 -54.313802 90.997761 22.425642 -34.738195 36.492226 0.000000 0.000000 0.000000 -7.125000 0.000000 0.000000 -5.999533 -8.500977 -6.855385 0.000000 0.000000 0.000000 -73.902670 8.719149 -25.015059 -130.255745 -52.891203 -94.029766 -41.171979 23.594658 17.202999 0.000000 0.000000 0.000000 7.125000 0.000000 0.000000 -13.727096 51.821703 2.342962
-0.958325 18.596764 5.466071 -4.783435 -11.791963 -2.770056 0.000000 0.000000 0.000000 -8.377482 1.020019 -1.933675 1.886439 8.625425 24.630344 1.521173 3.499702 -24.783207 8.892405 -16.737960 -55.717255 0.000000 0.000000 0.000000 20.362169 5.239838 12.072981 0.000000 0.000000 0.000000 -0.790573 -5.521111 -19.687156 -0.835124 5.829602 -16.290905 1.788648 -1.384129 16.167521 3.102203 -1.466583 5.901293 2.518509 -0.760948 -2.741528 -15.766367 -8.936841 2.906092 -1.544295 -11.621192 41.026467 0.684732 -7.659325 14.936868 0.000000 0.000000 0.000000 70.630506 3.433221 15.443677 128.318790 -53.650869 92.477339 22.756724 -34.684794 37.259821 0.000000 0.000000 0.000000 -7.125000 0.000000 0.000000 -5.964312 -9.349413 -6.888446 0.000000 0.000000 0.000000 -75.140220 8.010138 -25.152782 -131.094789 -52.544187 -94.697525 -41.329814 24.329997 17.343511 0.000000 0.000000 0.000000 7.125000 0.000000 0.000000 -13.915233 52.029891 2.447498
-0.968441 18.595271 5.467426 -4.783629 -11.823047 -2.768263 0.000000 0.000000 0.000000 -8.327080 1.110167 -1.932376 1.881771 8.615293 24.599136 1.514736 3.485021 -24.727621 8.916897 -16.753948 -55.802387 0.000000 0.000000 0.000000 20.415879 5.319616 12.114823 0.000000 0.000000 0.000000 -0.793459 -5.537375 -19.726896 -0.815339 5.761774 -16.094703 1.711470 -1.331170 16.213509 3.130252 -1.407015 5.921912 2.582056 -0.732527 -2.743322 -15.491786 -9.008007 2.917761 -1.420404 -11.804317 41.020906 0.672154 -7.684986 14.923874 0.000000 0.000000 0.000000 71.782200 2.769080 16.357597 129.913888 -53.027854 93.756391 23.110968 -34.596907 37.781468 0.000000 0.000000 0.000000 -7.125000 0.000000 0.000000 -5.877308 -9.957375 -6.837989 0.000000 0.000000 0.000000 -76.147823 7.367435 -25.401271 -131.902179 -52.198235 -95.336831 -41.668841 25.036195 17.424352 0.000000 0.000000 0.000000 7.125000 0.000000 0.000000 -14.299509 52.206344 2.580506
